# xmcd
#
# Track frame offsets: 
#        150
#        17318
#        28249
#        50922
#        69931
#        85214
#        108198
#        124947
#        143998
#
# Disc length: 2098 seconds
#
# Revision: 0
# Processed by: cddbd v1.5.2PL0 Copyright (c) Steve Scherf et al.
# Submitted via: ExactAudioCopyFreeDBPlugin 1.0
#
DISCID=76083009
DTITLE=Doug Adkins and One More Ride - a losin' soul
DYEAR=2002
DGENRE=Country
TTITLE0=Ropin' The Wind
TTITLE1=What's Your Problem
TTITLE2=A Losin' Soul
TTITLE3=Spoon Fed
TTITLE4=Read My Lips
TTITLE5=One More Ride
TTITLE6=Back Room Deals
TTITLE7=Man Of Honor
TTITLE8=Talk About Blue
EXTD=
EXTT0=
EXTT1=
EXTT2=
EXTT3=
EXTT4=
EXTT5=
EXTT6=
EXTT7=
EXTT8=
PLAYORDER=
